<svg xmlns="http://www.w3.org/2000/svg" width="120" height="120" viewBox="0 0 120 120" fill="none">
  <defs>
    <linearGradient id="bg" x1="20" y1="12" x2="100" y2="108" gradientUnits="userSpaceOnUse">
      <stop stop-color="#FFF5F9"/>
      <stop offset="0.45" stop-color="#FCE7F3"/>
      <stop offset="1" stop-color="#E8E4FF"/>
    </linearGradient>
    <linearGradient id="ring" x1="24" y1="24" x2="96" y2="96" gradientUnits="userSpaceOnUse">
      <stop stop-color="#E8B86D"/>
      <stop offset="0.5" stop-color="#FF69B4"/>
      <stop offset="1" stop-color="#9B8CFF"/>
    </linearGradient>
    <linearGradient id="lens" x1="44" y1="44" x2="76" y2="76" gradientUnits="userSpaceOnUse">
      <stop stop-color="#1A1A2E"/>
      <stop offset="1" stop-color="#3D4A7A"/>
    </linearGradient>
    <radialGradient id="glow" cx="0" cy="0" r="1" gradientUnits="userSpaceOnUse" gradientTransform="translate(60 58) rotate(90) scale(42)">
      <stop stop-color="#FF69B4" stop-opacity="0.35"/>
      <stop offset="1" stop-color="#FF69B4" stop-opacity="0"/>
    </radialGradient>
  </defs>
  <circle cx="60" cy="60" r="56" fill="url(#bg)"/>
  <circle cx="60" cy="60" r="56" fill="url(#glow)"/>
  <circle cx="28" cy="32" r="6" fill="#FF69B4" fill-opacity="0.18"/>
  <circle cx="92" cy="28" r="4" fill="#E8B86D" fill-opacity="0.35"/>
  <circle cx="88" cy="86" r="8" fill="#9B8CFF" fill-opacity="0.2"/>
  <circle cx="60" cy="60" r="48" stroke="url(#ring)" stroke-width="2.5" stroke-opacity="0.85"/>
  <circle cx="60" cy="60" r="34" fill="url(#lens)" fill-opacity="0.92"/>
  <circle cx="60" cy="60" r="28" stroke="#fff" stroke-width="2" stroke-opacity="0.25"/>
  <path d="M60 38c-8.5 0-15.5 6.2-16.8 14.2-.2 1.2.8 2.3 2 2.3h29.6c1.2 0 2.2-1.1 2-2.3C75.5 44.2 68.5 38 60 38z" fill="#fff" fill-opacity="0.12"/>
  <ellipse cx="52" cy="54" rx="5" ry="7" fill="#fff" fill-opacity="0.35"/>
  <path d="M48 68c4.5 5.5 11.5 9 16 9s11.5-3.5 16-9" stroke="#E8B86D" stroke-width="2" stroke-linecap="round" stroke-opacity="0.9"/>
  <path d="M38 78c8 6 34 6 44 0" stroke="url(#ring)" stroke-width="1.5" stroke-linecap="round" stroke-opacity="0.5"/>
</svg>
