<svg xmlns="http://www.w3.org/2000/svg" width="24" height="24" viewBox="0 0 24 24" fill="none">
  <path fill="#ea580c" fill-opacity="0.18" d="M7 4.5h10a1.5 1.5 0 0 1 1.5 1.5v13a1.5 1.5 0 0 1-1.5 1.5H7A1.5 1.5 0 0 1 5.5 19V6A1.5 1.5 0 0 1 7 4.5Z"/>
  <path stroke="#ea580c" stroke-width="1.75" stroke-linecap="round" stroke-linejoin="round" fill="none" d="M7.6 5.1h8.8a1 1 0 0 1 1 1v11.8a1 1 0 0 1-1 1H7.6a1 1 0 0 1-1-1V6.1a1 1 0 0 1 1-1Z"/>
  <path stroke="#ea580c" stroke-width="1.75" stroke-linecap="round" d="M8.8 8.6h6.4M8.8 11.4h4.6"/>
  <circle stroke="#ea580c" stroke-width="1.75" fill="none" cx="12" cy="15.2" r="1.5"/>
  <circle fill="#ea580c" cx="12" cy="12.6" r="2.2"/>
  <path stroke="#ea580c" stroke-width="1.75" stroke-linecap="round" stroke-linejoin="round" fill="none" d="M10.2 15.8c.5.9 1.2 1.3 1.8 1.3s1.3-.4 1.8-1.3"/>
</svg>
