<svg xmlns="http://www.w3.org/2000/svg" width="24" height="24" viewBox="0 0 24 24" fill="none">
  <path fill="#3b6df6" fill-opacity="0.18" d="M4 10.2 12 4.5l8 5.7V19a1.5 1.5 0 0 1-1.5 1.5H5.5A1.5 1.5 0 0 1 4 19V10.2Z"/>
  <path stroke="#3b6df6" stroke-width="1.75" stroke-linecap="round" stroke-linejoin="round" fill="none" d="M4 10.2 12 4.5l8 5.7V19a1.5 1.5 0 0 1-1.5 1.5h-5v-6.2H10v6.2h-5A1.5 1.5 0 0 1 4 19V10.2Z"/>
  <path stroke="#3b6df6" stroke-width="1.75" stroke-linecap="round" stroke-linejoin="round" fill="none" d="M9.5 20.5v-6.8h5v6.8"/>
  <circle fill="#3b6df6" cx="17.2" cy="7.4" r="3.1"/>
  <path stroke="#fff" stroke-width="1.4" stroke-linecap="round" d="M16 7.4h2.4M17.2 6.2v2.4"/>
</svg>
